# xmcd
#
# Track frame offsets: 
#        150
#        21228
#        42013
#        68264
#        82651
#        102796
#        132709
#        152048
#        173925
#        192730
#        214172
#        233306
#        253061
#
# Disc length: 3636 seconds
#
# Revision: 3
# Processed by: cddbd v1.5.2PL0 Copyright (c) Steve Scherf et al.
# Submitted via: ExactAudioCopyFreeDBPlugin 1.0
#
DISCID=a40e320d
DTITLE=童丽 - 念情(For The Feelings)
DYEAR=2011
DGENRE=Pop
TTITLE0=灞桥柳
TTITLE1=花榭花飞飞满天
TTITLE2=梦入桃花源
TTITLE3=杨柳青
TTITLE4=念情
TTITLE5=二泉映月
TTITLE6=小妹甜甜甜
TTITLE7=东北摇篮曲
TTITLE8=千古一爱
TTITLE9=又唱浏阳河
TTITLE10=永恒的诱惑
TTITLE11=你你我我
TTITLE12=四季调
EXTD=
EXTT0=
EXTT1=
EXTT2=
EXTT3=
EXTT4=
EXTT5=
EXTT6=
EXTT7=
EXTT8=
EXTT9=
EXTT10=
EXTT11=
EXTT12=
PLAYORDER=
